/* XPM */
static char * bottom_right_active_xpm[] = {
"4 4 2 1",
" 	c #FDD017",
".	c #A38300",
" ...",
"....",
"....",
"...."};
