/* XPM */
static char * close_prelight_xpm[] = {
"20 20 5 1",
" 	c None",
".	c #E1BF38",
"+	c #806700",
"@	c #C4A112",
"#	c #544400",
" .................. ",
"...................+",
"..+@@@        ####++",
"..++@@@      ####.++",
"..+++@@@    ####..++",
"..++++@@@  ####...++",
".. ++++@@@####... ++",
"..  ++++@@###...  ++",
"..   ++++@##...   ++",
"..    ++++#...    ++",
"..    ####+@@@    ++",
"..   ####.++@@@   ++",
"..  ####..+++@@@  ++",
".. ####...++++@@@ ++",
"..####...  ++++@@@++",
"..###...    ++++@@++",
"..##...      ++++@++",
"..#...        ++++++",
".+++++++++++++++++++",
" ++++++++++++++++++ "};
