/* XPM */
static char * close_inactive_xpm[] = {
"20 20 5 1",
" 	c None",
".	c #C4A112",
"+	c #E1BF38",
"@	c #A38300",
"#	c #FDD017",
"                    ",
"                    ",
"  .+++        @@@@  ",
"  ..+++      @@@@#  ",
"  ...+++    @@@@##  ",
"  ....+++  @@@@###  ",
"   ....+++@@@@###   ",
"    ....++@@@###    ",
"     ....+@@###     ",
"      ....@###      ",
"      @@@@.+++      ",
"     @@@@#..+++     ",
"    @@@@##...+++    ",
"   @@@@###....+++   ",
"  @@@@###  ....+++  ",
"  @@@###    ....++  ",
"  @@###      ....+  ",
"  @###        ....  ",
"                    ",
"                    "};
