/* XPM */
static char * hide_pressed_xpm[] = {
"20 20 4 1",
" 	c None",
".	c #806700",
"+	c #E2C038",
"@	c #544400",
" .................. ",
"...................+",
"..                ++",
"..                ++",
"..                ++",
"..                ++",
"..                ++",
"..                ++",
"..                ++",
"..                ++",
"..                ++",
"..                ++",
"..@@@@@@@@@@@@@@@@++",
"..@@@@@@@@@@@@@@@@++",
"..@@@@@@@@@@@@@@@@++",
"..++++++++++++++++++",
"..++++++++++++++++++",
"..++++++++++++++++++",
"..++++++++++++++++++",
" .+++++++++++++++++ "};
