/* XPM */
static char * maximize_toggled_active_xpm[] = {
"20 20 5 1",
" 	c None",
".	c #806700",
"+	c #544400",
"@	c #C4A112",
"#	c #E2C038",
"                    ",
"                    ",
"        .++++++++@  ",
"        ..++++++@@  ",
"        ...++++@@@  ",
"        ....++@@@@  ",
"        .....@@@@@  ",
"        .....@@@@@  ",
"        ....##@@@@  ",
"        ...####@@@  ",
"        ..######@@  ",
"        .########@  ",
"   ....#            ",
"   ...##            ",
"   ..###            ",
"   .####            ",
"   #####            ",
"                    ",
"                    ",
"                    "};
