/* XPM */
static char * maximize_toggled_prelight_xpm[] = {
"20 20 5 1",
" 	c None",
".	c #E2C038",
"+	c #806700",
"@	c #544400",
"#	c #C4A112",
" .................. ",
"...................+",
"..      +@@@@@@@@#++",
"..      ++@@@@@@##++",
"..      +++@@@@###++",
"..      ++++@@####++",
"..      +++++#####++",
"..      +++++#####++",
"..      ++++..####++",
"..      +++....###++",
"..      ++......##++",
"..      +........#++",
".. ++++.          ++",
".. +++..          ++",
".. ++...          ++",
".. +....          ++",
".. .....          ++",
"..                ++",
".+++++++++++++++++++",
" ++++++++++++++++++ "};
