/* XPM */
static char * maximize_inactive_xpm[] = {
"20 20 5 1",
" 	c None",
".	c #A38300",
"+	c #E1BF38",
"@	c #C4A112",
"#	c #FDD017",
"                    ",
"                    ",
"                    ",
"            .....   ",
"            ....+   ",
"            ...++   ",
"            ..+++   ",
"            .++++   ",
"  @........+        ",
"  @@......++        ",
"  @@@....+++        ",
"  @@@@..++++        ",
"  @@@@@+++++        ",
"  @@@@@+++++        ",
"  @@@@##++++        ",
"  @@@####+++        ",
"  @@######++        ",
"  @########+        ",
"                    ",
"                    "};
