/* XPM */
static char * maximize_toggled_pressed_xpm[] = {
"20 20 5 1",
" 	c None",
".	c #806700",
"+	c #E2C038",
"@	c #544400",
"#	c #C4A112",
" .................. ",
"...................+",
"..      .@@@@@@@@#++",
"..      ..@@@@@@##++",
"..      ...@@@@###++",
"..      ....@@####++",
"..      .....#####++",
"..      .....#####++",
"..      ....++####++",
"..      ...++++###++",
"..      ..++++++##++",
"..      .++++++++#++",
".. ....+          ++",
".. ...++          ++",
".. ..+++          ++",
".. .++++          ++",
".. +++++          ++",
"..                ++",
".+++++++++++++++++++",
" ++++++++++++++++++ "};
