/* XPM */
static char * maximize_pressed_xpm[] = {
"20 20 5 1",
" 	c None",
".	c #806700",
"+	c #E1BF38",
"@	c #544400",
"#	c #C4A112",
" .................. ",
"...................+",
"..                ++",
"..          @@@@@ ++",
"..          @@@@# ++",
"..          @@@## ++",
"..          @@### ++",
"..          @#### ++",
"...@@@@@@@@#      ++",
"....@@@@@@##      ++",
".....@@@@###      ++",
"......@@####      ++",
".......#####      ++",
".......#####      ++",
"......++####      ++",
".....++++###      ++",
"....++++++##      ++",
"...++++++++#      ++",
".+++++++++++++++++++",
" ++++++++++++++++++ "};
