/* XPM */
static char * shade_active_xpm[] = {
"20 20 3 1",
" 	c None",
".	c #544400",
"+	c #E2C038",
"                    ",
"                    ",
"  ................  ",
"  ................  ",
"  ................  ",
"  ++++++++++++++++  ",
"  ++++++++++++++++  ",
"  ++++++++++++++++  ",
"                    ",
"                    ",
"                    ",
"                    ",
"                    ",
"                    ",
"                    ",
"                    ",
"                    ",
"                    ",
"                    ",
"                    "};
