/* XPM */
static char * stick_prelight_xpm[] = {
"20 20 4 1",
" 	c None",
".	c #E2C038",
"+	c #806700",
"@	c #544400",
" .................. ",
"...................+",
"..@@@@@.    @@@@@.++",
"..@@@@..    @@@@..++",
"..@@@...    @@@...++",
"..@@....    @@....++",
"..@.....    @.....++",
"........    ......++",
"..                ++",
"..                ++",
"..                ++",
"..                ++",
"..@@@@@.    @@@@@.++",
"..@@@@..    @@@@..++",
"..@@@...    @@@...++",
"..@@....    @@....++",
"..@.....    @.....++",
"........    ......++",
".+++++++++++++++++++",
" ++++++++++++++++++ "};
