/* XPM */
static char * stick_inactive_xpm[] = {
"20 20 3 1",
" 	c None",
".	c #A38300",
"+	c #FDD017",
"                    ",
"                    ",
"  .....+    .....+  ",
"  ....++    ....++  ",
"  ...+++    ...+++  ",
"  ..++++    ..++++  ",
"  .+++++    .+++++  ",
"  ++++++    ++++++  ",
"                    ",
"                    ",
"                    ",
"                    ",
"  .....+    .....+  ",
"  ....++    ....++  ",
"  ...+++    ...+++  ",
"  ..++++    ..++++  ",
"  .+++++    .+++++  ",
"  ++++++    ++++++  ",
"                    ",
"                    "};
